<?xml version="1.0" encoding="utf-8"?>
<!-- Generator: Adobe Illustrator 16.0.0, SVG Export Plug-In . SVG Version: 6.00 Build 0)  -->
<!DOCTYPE svg PUBLIC "-//W3C//DTD SVG 1.1//EN" "http://www.w3.org/Graphics/SVG/1.1/DTD/svg11.dtd">
<svg version="1.1" id="Calque_1" xmlns="http://www.w3.org/2000/svg" xmlns:xlink="http://www.w3.org/1999/xlink" x="0px" y="0px"
	 width="264.377px" height="34.686px" viewBox="165.452 270.683 264.377 34.686"
	 enable-background="new 165.452 270.683 264.377 34.686" xml:space="preserve">
<path fill="#294C6F" d="M197.049,303.678c0,0.917-0.771,1.69-1.688,1.69c-0.916,0-1.64-0.773-1.64-1.69v-20.644
	c0-1.161,0.096-3.861,0.191-5.887h-0.046c-0.965,1.69-2.703,4.679-3.089,5.354l-8.009,14.135c-0.434,0.723-0.868,1.062-1.542,1.062
	c-0.626,0-1.158-0.339-1.591-1.062l-8.153-14.135c-0.531-0.917-2.123-3.763-3.088-5.548h-0.049c0.049,2.124,0.194,4.873,0.194,6.271
	v20.55c0,0.918-0.674,1.595-1.543,1.595s-1.544-0.677-1.544-1.595v-31.019c0-0.868,0.675-1.589,1.834-1.589
	c0.771,0,1.494,0.189,2.074,1.204l9.599,16.739c0.677,1.208,1.642,2.942,2.316,4.197c0.626-1.158,1.449-2.699,2.269-4.098
	l9.792-16.936c0.531-0.916,1.254-1.105,1.979-1.105c0.964,0,1.735,0.53,1.735,1.494L197.049,303.678L197.049,303.678z"/>
<path fill="#BF3441" d="M231.585,303.101c0.096,0.242,0.195,0.483,0.195,0.725c0,0.627-0.339,1.204-0.965,1.445
	c-0.244,0.099-0.533,0.099-0.773,0.099H203.51c-0.243,0-0.484-0.049-0.674-0.099c-0.581-0.192-0.869-0.722-0.869-1.304
	c0-0.237,0.045-0.577,0.19-0.866l13.558-30.829c0.337-0.77,1.012-1.06,1.736-1.06c0.869,0,1.449,0.338,1.784,1.208L231.585,303.101z
	"/>
<path fill="#294C6F" d="M268.341,303.678c0,0.917-0.771,1.69-1.689,1.69c-0.916,0-1.64-0.773-1.64-1.69v-20.644
	c0-1.161,0.096-3.861,0.191-5.887h-0.046c-0.964,1.69-2.702,4.679-3.089,5.354l-8.007,14.135c-0.434,0.723-0.869,1.062-1.544,1.062
	c-0.625,0-1.158-0.339-1.59-1.062l-8.153-14.135c-0.531-0.917-2.124-3.763-3.088-5.548h-0.049c0.049,2.124,0.194,4.873,0.194,6.271
	v20.55c0,0.918-0.675,1.595-1.543,1.595c-0.869,0-1.543-0.677-1.543-1.595v-31.019c0-0.868,0.674-1.589,1.833-1.589
	c0.771,0,1.495,0.189,2.074,1.204l9.599,16.739c0.677,1.208,1.642,2.942,2.317,4.197c0.626-1.158,1.449-2.699,2.268-4.098
	l9.792-16.936c0.531-0.916,1.255-1.105,1.979-1.105c0.965,0,1.736,0.53,1.736,1.494v31.016H268.341z"/>
<path fill="#F9B848" d="M302.878,303.101c0.097,0.242,0.191,0.483,0.191,0.725c0,0.627-0.34,1.204-0.963,1.445
	c-0.244,0.099-0.535,0.099-0.773,0.099h-26.533c-0.243,0-0.484-0.049-0.674-0.099c-0.58-0.192-0.869-0.722-0.869-1.304
	c0-0.237,0.045-0.577,0.19-0.866l13.558-30.829c0.337-0.77,1.012-1.06,1.735-1.06c0.869,0,1.45,0.338,1.785,1.208L302.878,303.101z"
	/>
<path fill="#294C6F" d="M320.677,270.683c5.162,0,9.939,2.025,12.447,5.786c0.242,0.339,0.385,0.774,0.385,1.112
	c0,0.481-0.191,0.867-0.627,1.205c-0.242,0.194-0.674,0.339-1.014,0.339c-0.674,0-1.158-0.339-1.541-0.823
	c-2.465-3.229-5.502-4.389-9.65-4.389c-7.525,0-13.074,6.03-13.074,14.281c0,8.249,5.693,14.52,13.125,14.52
	c2.748,0,5.355-0.338,7.764-1.736c1.547-0.869,2.125-1.446,2.125-2.315v-7.285h-8.924c-0.918,0-1.596-0.674-1.596-1.543
	c0-0.918,0.678-1.589,1.596-1.589h9.982c1.254,0,2.219,0.913,2.219,2.169v7.718c0,3.039-1.539,4.342-3.951,5.693
	c-2.559,1.445-5.357,2.072-9.215,2.072c-9.406,0-16.452-7.477-16.452-17.702C304.275,278.162,311.32,270.683,320.677,270.683"/>
<path fill="#EC663E" d="M354.925,270.683c9.266,0,16.643,7.62,16.643,17.607s-7.379,17.658-16.643,17.658
	c-9.357,0-16.643-7.67-16.643-17.658S345.566,270.683,354.925,270.683"/>
<path fill="#294C6F" d="M397.414,272.9c0,0.87-0.768,1.594-1.639,1.594h-10.129v29.185c0,0.917-0.723,1.69-1.641,1.69
	c-0.916,0-1.637-0.773-1.637-1.69v-29.185h-10.135c-0.869,0-1.592-0.724-1.592-1.594c0-0.916,0.723-1.588,1.592-1.588h23.541
	C396.646,271.312,397.414,271.984,397.414,272.9"/>
<path fill="#BF3441" d="M413.187,270.683c9.262,0,16.643,7.62,16.643,17.607s-7.381,17.658-16.643,17.658
	c-9.359,0-16.645-7.67-16.645-17.658S403.826,270.683,413.187,270.683"/>
</svg>
