<?xml version="1.0" encoding="utf-8"?>
<!-- Generator: Adobe Illustrator 16.0.0, SVG Export Plug-In . SVG Version: 6.00 Build 0)  -->
<!DOCTYPE svg PUBLIC "-//W3C//DTD SVG 1.1//EN" "http://www.w3.org/Graphics/SVG/1.1/DTD/svg11.dtd">
<svg version="1.1" id="Calque_1" xmlns="http://www.w3.org/2000/svg" xmlns:xlink="http://www.w3.org/1999/xlink" x="0px" y="0px"
	 width="595.28px" height="595.276px" viewBox="0 0 595.28 595.276" enable-background="new 0 0 595.28 595.276"
	 xml:space="preserve">
<path fill="#294C6F" d="M297.642,588.108c160.695,0,290.957-130.269,290.957-290.964c0-160.694-130.262-290.961-290.957-290.961
	S6.68,136.45,6.68,297.144C6.68,457.839,136.946,588.108,297.642,588.108"/>
<g>
	<path fill="#FFFFFF" d="M297.642,559.485C152.986,559.485,35.3,441.801,35.3,297.148c0-144.656,117.686-262.343,262.341-262.343
		c144.656,0,262.34,117.687,262.34,262.343C559.981,441.801,442.298,559.485,297.642,559.485z M297.642,39.726
		c-141.943,0-257.421,115.48-257.421,257.423c0,141.941,115.478,257.417,257.421,257.417c141.941,0,257.42-115.476,257.42-257.417
		C555.062,155.206,439.583,39.726,297.642,39.726z"/>
</g>
<path fill="#FFFFFF" d="M132.667,322.345c0,1.504-1.265,2.772-2.769,2.772c-1.501,0-2.69-1.269-2.69-2.772v-33.857
	c0-1.904,0.158-6.333,0.314-9.656h-0.075c-1.583,2.772-4.433,7.675-5.066,8.782l-13.135,23.182c-0.711,1.187-1.423,1.741-2.53,1.741
	c-1.027,0-1.898-0.555-2.609-1.741l-13.371-23.182c-0.87-1.504-3.482-6.171-5.064-9.099H85.59c0.081,3.482,0.318,7.992,0.318,10.284
	v33.704c0,1.505-1.106,2.615-2.532,2.615s-2.532-1.11-2.532-2.615v-50.871c0-1.424,1.106-2.606,3.007-2.606
	c1.265,0,2.451,0.311,3.401,1.974l15.743,27.453c1.11,1.982,2.692,4.828,3.799,6.883c1.027-1.899,2.377-4.427,3.721-6.721
	l16.06-27.776c0.871-1.502,2.057-1.812,3.245-1.812c1.581,0,2.846,0.869,2.846,2.449V322.345z"/>
<path fill="#BE3441" d="M189.307,321.396c0.158,0.4,0.32,0.795,0.32,1.188c0,1.028-0.557,1.976-1.583,2.373
	c-0.399,0.16-0.875,0.16-1.269,0.16h-43.514c-0.398,0-0.793-0.08-1.105-0.16c-0.953-0.317-1.425-1.185-1.425-2.138
	c0-0.392,0.074-0.949,0.312-1.424l22.235-50.558c0.553-1.262,1.659-1.738,2.847-1.738c1.424,0,2.376,0.555,2.925,1.982
	L189.307,321.396z"/>
<path fill="#FFFFFF" d="M249.589,322.345c0,1.504-1.264,2.772-2.77,2.772c-1.501,0-2.689-1.269-2.689-2.772v-33.857
	c0-1.904,0.158-6.333,0.314-9.656h-0.076c-1.582,2.772-4.432,7.675-5.066,8.782l-13.132,23.182
	c-0.712,1.187-1.425,1.741-2.533,1.741c-1.026,0-1.899-0.555-2.608-1.741l-13.371-23.182c-0.871-1.504-3.483-6.171-5.065-9.099
	h-0.081c0.081,3.482,0.318,7.992,0.318,10.284v33.704c0,1.505-1.106,2.615-2.531,2.615c-1.425,0-2.531-1.11-2.531-2.615v-50.871
	c0-1.424,1.106-2.606,3.006-2.606c1.264,0,2.451,0.311,3.401,1.974l15.743,27.453c1.111,1.982,2.693,4.828,3.8,6.883
	c1.027-1.899,2.376-4.427,3.72-6.721l16.06-27.776c0.871-1.502,2.059-1.812,3.245-1.812c1.583,0,2.847,0.869,2.847,2.449V322.345z"
	/>
<path fill="#F8B848" d="M306.232,321.396c0.156,0.4,0.313,0.795,0.313,1.188c0,1.028-0.557,1.976-1.579,2.373
	c-0.4,0.16-0.878,0.16-1.269,0.16h-43.515c-0.397,0-0.793-0.08-1.105-0.16c-0.95-0.317-1.425-1.185-1.425-2.138
	c0-0.392,0.074-0.949,0.312-1.424l22.235-50.558c0.552-1.262,1.659-1.738,2.846-1.738c1.424,0,2.377,0.555,2.927,1.982
	L306.232,321.396z"/>
<path fill="#FFFFFF" d="M335.423,268.231c8.467,0,16.299,3.321,20.415,9.49c0.396,0.557,0.631,1.27,0.631,1.824
	c0,0.79-0.317,1.421-1.028,1.977c-0.397,0.318-1.105,0.555-1.662,0.555c-1.105,0-1.899-0.555-2.528-1.349
	c-4.041-5.295-9.023-7.198-15.827-7.198c-12.345,0-21.441,9.89-21.441,23.421c0,13.529,9.337,23.812,21.525,23.812
	c4.507,0,8.779-0.555,12.73-2.85c2.536-1.425,3.484-2.372,3.484-3.796v-11.947h-14.636c-1.506,0-2.613-1.105-2.613-2.531
	c0-1.507,1.107-2.606,2.613-2.606h16.375c2.056,0,3.639,1.498,3.639,3.557v12.657c0,4.983-2.523,7.121-6.482,9.336
	c-4.194,2.373-8.787,3.4-15.11,3.4c-15.431,0-26.984-12.261-26.984-29.033C308.522,280.497,320.076,268.231,335.423,268.231"/>
<path fill="#EB663E" d="M391.592,268.231c15.193,0,27.291,12.497,27.291,28.877s-12.098,28.96-27.291,28.96
	c-15.351,0-27.295-12.579-27.295-28.96S376.241,268.231,391.592,268.231"/>
<path fill="#FFFFFF" d="M461.274,271.867c0,1.427-1.259,2.614-2.688,2.614h-16.611v47.864c0,1.504-1.186,2.772-2.691,2.772
	c-1.502,0-2.685-1.269-2.685-2.772v-47.864h-16.621c-1.425,0-2.606-1.187-2.606-2.614c0-1.501,1.182-2.604,2.606-2.604h38.608
	C460.016,269.263,461.274,270.366,461.274,271.867"/>
<path fill="#BE3441" d="M487.144,268.231c15.187,0,27.292,12.497,27.292,28.877s-12.105,28.96-27.292,28.96
	c-15.354,0-27.298-12.579-27.298-28.96S471.79,268.231,487.144,268.231"/>
</svg>
